{
  "accessors": [
    {
      "bufferView": 2,
      "componentType": 5126,
      "count": 13151,
      "max": [
        0.43964946269989014,
        0.29898741841316223,
        1.366184949874878
      ],
      "min": [
        -0.35012757778167725,
        -0.36161407828330994,
        0.7965887188911438
      ],
      "type": "VEC3"
    },
    {
      "bufferView": 2,
      "byteOffset": 157812,
      "componentType": 5126,
      "count": 13151,
      "max": [
        0.999985933303833,
        0.9985982775688171,
        0.999789834022522
      ],
      "min": [
        -0.999933123588562,
        -0.9998999834060669,
        -0.9996038675308228
      ],
      "type": "VEC3"
    },
    {
      "bufferView": 3,
      "componentType": 5126,
      "count": 13151,
      "max": [
        0.9999619722366333,
        0.9998805522918701,
        0.9985331296920776,
        1.0
      ],
      "min": [
        -0.9998651742935181,
        -0.9998524785041809,
        -0.9999296069145203,
        -1.0
      ],
      "type": "VEC4"
    },
    {
      "bufferView": 1,
      "componentType": 5126,
      "count": 13151,
      "max": [
        0.994140625,
        0.9917526245117188
      ],
      "min": [
        0.00588226318359375,
        0.00390625
      ],
      "type": "VEC2"
    },
    {
      "bufferView": 1,
      "byteOffset": 105208,
      "componentType": 5126,
      "count": 13151,
      "max": [
        0.99609375,
        0.9993815422058105
      ],
      "min": [
        0.0019683837890625,
        0.0205078125
      ],
      "type": "VEC2"
    },
    {
      "bufferView": 1,
      "byteOffset": 210416,
      "componentType": 5126,
      "count": 13151,
      "max": [
        0.994140625,
        0.9917526245117188
      ],
      "min": [
        0.00588226318359375,
        0.00390625
      ],
      "type": "VEC2"
    },
    {
      "bufferView": 0,
      "componentType": 5125,
      "count": 73230,
      "type": "SCALAR"
    },
    {
      "bufferView": 2,
      "byteOffset": 315624,
      "componentType": 5126,
      "count": 5977,
      "max": [
        0.26541170477867126,
        0.23094451427459717,
        1.4601727724075317
      ],
      "min": [
        -0.24783875048160553,
        -0.15091243386268616,
        0.8974197506904602
      ],
      "type": "VEC3"
    },
    {
      "bufferView": 2,
      "byteOffset": 387348,
      "componentType": 5126,
      "count": 5977,
      "max": [
        0.999374270439148,
        0.9995259046554565,
        0.9994509220123291
      ],
      "min": [
        -0.9998637437820435,
        -0.999972939491272,
        -0.9996005296707153
      ],
      "type": "VEC3"
    },
    {
      "bufferView": 3,
      "byteOffset": 210416,
      "componentType": 5126,
      "count": 5977,
      "max": [
        0.9999731779098511,
        0.9967031478881836,
        0.961617112159729,
        1.0
      ],
      "min": [
        -0.9997223019599915,
        -0.9999060034751892,
        -0.9938291311264038,
        -1.0
      ],
      "type": "VEC4"
    },
    {
      "bufferView": 1,
      "byteOffset": 315624,
      "componentType": 5126,
      "count": 5977,
      "max": [
        0.998046875,
        0.9949264526367188
      ],
      "min": [
        0.011566162109375,
        0.0078125
      ],
      "type": "VEC2"
    },
    {
      "bufferView": 1,
      "byteOffset": 363440,
      "componentType": 5126,
      "count": 5977,
      "max": [
        0.8134765625,
        0.9980316162109375
      ],
      "min": [
        0.0019683837890625,
        0.099609375
      ],
      "type": "VEC2"
    },
    {
      "bufferView": 1,
      "byteOffset": 411256,
      "componentType": 5126,
      "count": 5977,
      "max": [
        0.998046875,
        0.9949264526367188
      ],
      "min": [
        0.011566162109375,
        0.0078125
      ],
      "type": "VEC2"
    },
    {
      "bufferView": 0,
      "byteOffset": 292920,
      "componentType": 5125,
      "count": 33861,
      "type": "SCALAR"
    },
    {
      "bufferView": 2,
      "byteOffset": 459072,
      "componentType": 5126,
      "count": 5454,
      "max": [
        0.2733471691608429,
        0.22304268181324005,
        1.0312604904174805
      ],
      "min": [
        -0.25205934047698975,
        -0.16794097423553467,
        0.516205906867981
      ],
      "type": "VEC3"
    },
    {
      "bufferView": 2,
      "byteOffset": 524520,
      "componentType": 5126,
      "count": 5454,
      "max": [
        0.9997611045837402,
        0.9999200105667114,
        0.9995981454849243
      ],
      "min": [
        -0.9996128082275391,
        -0.9998412132263184,
        -0.9999550580978394
      ],
      "type": "VEC3"
    },
    {
      "bufferView": 3,
      "byteOffset": 306048,
      "componentType": 5126,
      "count": 5454,
      "max": [
        0.9995947480201721,
        0.9994621276855469,
        0.9999555945396423,
        1.0
      ],
      "min": [
        -0.999823808670044,
        -0.9997167587280273,
        -0.9999635219573975,
        -1.0
      ],
      "type": "VEC4"
    },
    {
      "bufferView": 1,
      "byteOffset": 459072,
      "componentType": 5126,
      "count": 5454,
      "max": [
        0.99658203125,
        0.9944496154785156
      ],
      "min": [
        0.005046844482421875,
        0.005859375
      ],
      "type": "VEC2"
    },
    {
      "bufferView": 1,
      "byteOffset": 502704,
      "componentType": 5126,
      "count": 5454,
      "max": [
        0.97998046875,
        0.79736328125
      ],
      "min": [
        0.0019683837890625,
        0.0078125
      ],
      "type": "VEC2"
    },
    {
      "bufferView": 1,
      "byteOffset": 546336,
      "componentType": 5126,
      "count": 5454,
      "max": [
        0.99658203125,
        0.9944496154785156
      ],
      "min": [
        0.005046844482421875,
        0.005859375
      ],
      "type": "VEC2"
    },
    {
      "bufferView": 0,
      "byteOffset": 428364,
      "componentType": 5125,
      "count": 28800,
      "type": "SCALAR"
    },
    {
      "bufferView": 2,
      "byteOffset": 589968,
      "componentType": 5126,
      "count": 3316,
      "max": [
        0.41372376680374146,
        0.2584396302700043,
        0.9297323822975159
      ],
      "min": [
        -0.32635557651519775,
        -0.24376556277275085,
        -0.0014770508278161287
      ],
      "type": "VEC3"
    },
    {
      "bufferView": 2,
      "byteOffset": 629760,
      "componentType": 5126,
      "count": 3316,
      "max": [
        0.9997186660766602,
        0.9993792772293091,
        0.9975635409355164
      ],
      "min": [
        -0.9979219436645508,
        -0.9997736215591431,
        -0.9999665021896362
      ],
      "type": "VEC3"
    },
    {
      "bufferView": 3,
      "byteOffset": 393312,
      "componentType": 5126,
      "count": 3316,
      "max": [
        0.9998323321342468,
        0.9999352693557739,
        0.9996241927146912,
        1.0
      ],
      "min": [
        -0.9995006322860718,
        -0.9999579191207886,
        -0.9326070547103882,
        -1.0
      ],
      "type": "VEC4"
    },
    {
      "bufferView": 1,
      "byteOffset": 589968,
      "componentType": 5126,
      "count": 3316,
      "max": [
        0.99560546875,
        0.9934463500976563
      ],
      "min": [
        0.006992340087890625,
        0.02392578125
      ],
      "type": "VEC2"
    },
    {
      "bufferView": 1,
      "byteOffset": 616496,
      "componentType": 5126,
      "count": 3316,
      "max": [
        0.994140625,
        0.9980316162109375
      ],
      "min": [
        0.0019683837890625,
        0.044921875
      ],
      "type": "VEC2"
    },
    {
      "bufferView": 1,
      "byteOffset": 643024,
      "componentType": 5126,
      "count": 3316,
      "max": [
        0.99560546875,
        0.9934463500976563
      ],
      "min": [
        0.006992340087890625,
        0.02392578125
      ],
      "type": "VEC2"
    },
    {
      "bufferView": 0,
      "byteOffset": 543564,
      "componentType": 5125,
      "count": 17430,
      "type": "SCALAR"
    },
    {
      "bufferView": 2,
      "byteOffset": 669552,
      "componentType": 5126,
      "count": 5236,
      "max": [
        0.32292357087135315,
        0.060043610632419586,
        1.7613035440444946
      ],
      "min": [
        -0.2506549060344696,
        -0.2012716680765152,
        1.3412117958068848
      ],
      "type": "VEC3"
    },
    {
      "bufferView": 2,
      "byteOffset": 732384,
      "componentType": 5126,
      "count": 5236,
      "max": [
        0.9997165203094482,
        0.999018132686615,
        0.9995301961898804
      ],
      "min": [
        -0.9994810819625854,
        -0.9999299049377441,
        -0.9999340772628784
      ],
      "type": "VEC3"
    },
    {
      "bufferView": 3,
      "byteOffset": 446368,
      "componentType": 5126,
      "count": 5236,
      "max": [
        0.9999632239341736,
        0.9997819662094116,
        0.9949676394462585,
        1.0
      ],
      "min": [
        -0.9999663233757019,
        -0.9996917843818665,
        -0.9990797638893127,
        -1.0
      ],
      "type": "VEC4"
    },
    {
      "bufferView": 1,
      "byteOffset": 669552,
      "componentType": 5126,
      "count": 5236,
      "max": [
        0.99853515625,
        0.9995934963226318
      ],
      "min": [
        0.0017385482788085938,
        0.0009765625
      ],
      "type": "VEC2"
    },
    {
      "bufferView": 1,
      "byteOffset": 711440,
      "componentType": 5126,
      "count": 5236,
      "max": [
        0.9912109375,
        0.9982509613037109
      ],
      "min": [
        0.0019683837890625,
        0.00244140625
      ],
      "type": "VEC2"
    },
    {
      "bufferView": 1,
      "byteOffset": 753328,
      "componentType": 5126,
      "count": 5236,
      "max": [
        0.99853515625,
        0.9995934963226318
      ],
      "min": [
        0.0017385482788085938,
        0.0009765625
      ],
      "type": "VEC2"
    },
    {
      "bufferView": 0,
      "byteOffset": 613284,
      "componentType": 5125,
      "count": 26106,
      "type": "SCALAR"
    },
    {
      "bufferView": 2,
      "byteOffset": 795216,
      "componentType": 5126,
      "count": 1578,
      "max": [
        0.10404907166957855,
        0.09020045399665833,
        1.5586456060409546
      ],
      "min": [
        -0.07561279088258743,
        -0.14390362799167633,
        1.2918843030929565
      ],
      "type": "VEC3"
    },
    {
      "bufferView": 2,
      "byteOffset": 814152,
      "componentType": 5126,
      "count": 1578,
      "max": [
        0.9994677305221558,
        0.9971663355827332,
        0.9957733750343323
      ],
      "min": [
        -0.999040424823761,
        -0.9987816214561462,
        -0.9996441602706909
      ],
      "type": "VEC3"
    },
    {
      "bufferView": 3,
      "byteOffset": 530144,
      "componentType": 5126,
      "count": 1578,
      "max": [
        0.9999967217445374,
        0.9990054368972778,
        0.9965953230857849,
        1.0
      ],
      "min": [
        -0.999997615814209,
        -0.9986079335212708,
        -0.998225212097168,
        -1.0
      ],
      "type": "VEC4"
    },
    {
      "bufferView": 1,
      "byteOffset": 795216,
      "componentType": 5126,
      "count": 1578,
      "max": [
        0.9921875,
        0.9980564117431641
      ],
      "min": [
        0.004276275634765625,
        0.00341796875
      ],
      "type": "VEC2"
    },
    {
      "bufferView": 1,
      "byteOffset": 807840,
      "componentType": 5126,
      "count": 1578,
      "max": [
        0.95166015625,
        0.99835205078125
      ],
      "min": [
        0.0019273757934570313,
        0.28173828125
      ],
      "type": "VEC2"
    },
    {
      "bufferView": 1,
      "byteOffset": 820464,
      "componentType": 5126,
      "count": 1578,
      "max": [
        0.9921875,
        0.9980564117431641
      ],
      "min": [
        0.004276275634765625,
        0.00341796875
      ],
      "type": "VEC2"
    },
    {
      "bufferView": 0,
      "byteOffset": 717708,
      "componentType": 5125,
      "count": 8394,
      "type": "SCALAR"
    }
  ],
  "asset": {
    "extras": {
      "author": "Yxboireal (https://sketchfab.com/Yeboireal)",
      "license": "CC-BY-4.0 (http://creativecommons.org/licenses/by/4.0/)",
      "source": "https://sketchfab.com/3d-models/galactus-season-14-end-of-season-event-546c99e6eef24a3dadb1dad4ba6793c3",
      "title": "Galactus - Season 14 End of Season Event"
    },
    "generator": "Sketchfab-12.68.0",
    "version": "2.0"
  },
  "bufferViews": [
    {
      "buffer": 0,
      "byteLength": 751284,
      "name": "floatBufferViews",
      "target": 34963
    },
    {
      "buffer": 0,
      "byteLength": 833088,
      "byteOffset": 751284,
      "byteStride": 8,
      "name": "floatBufferViews",
      "target": 34962
    },
    {
      "buffer": 0,
      "byteLength": 833088,
      "byteOffset": 1584372,
      "byteStride": 12,
      "name": "floatBufferViews",
      "target": 34962
    },
    {
      "buffer": 0,
      "byteLength": 555392,
      "byteOffset": 2417460,
      "byteStride": 16,
      "name": "floatBufferViews",
      "target": 34962
    }
  ],
  "buffers": [
    {
      "byteLength": 2972852,
      "uri": "scene.bin"
    }
  ],
  "images": [
    {
      "uri": "textures/material_0_baseColor.png"
    },
    {
      "uri": "textures/material_0_normal.png"
    },
    {
      "uri": "textures/material_4_baseColor.png"
    },
    {
      "uri": "textures/material_4_normal.png"
    },
    {
      "uri": "textures/material_2_baseColor.png"
    },
    {
      "uri": "textures/material_2_normal.png"
    },
    {
      "uri": "textures/material_3_baseColor.png"
    },
    {
      "uri": "textures/material_3_normal.png"
    },
    {
      "uri": "textures/material_1_baseColor.png"
    },
    {
      "uri": "textures/material_1_normal.png"
    },
    {
      "uri": "textures/material_5_baseColor.png"
    },
    {
      "uri": "textures/material_5_normal.png"
    }
  ],
  "materials": [
    {
      "doubleSided": true,
      "emissiveFactor": [
        1.0,
        1.0,
        1.0
      ],
      "emissiveTexture": {
        "index": 0
      },
      "name": "material_0",
      "normalTexture": {
        "index": 1
      },
      "pbrMetallicRoughness": {
        "baseColorTexture": {
          "index": 0
        },
        "metallicFactor": 0.0,
        "roughnessFactor": 0.8211145618000169
      }
    },
    {
      "doubleSided": true,
      "emissiveFactor": [
        1.0,
        1.0,
        1.0
      ],
      "emissiveTexture": {
        "index": 2
      },
      "name": "material_4",
      "normalTexture": {
        "index": 3
      },
      "pbrMetallicRoughness": {
        "baseColorTexture": {
          "index": 2
        },
        "metallicFactor": 0.0,
        "roughnessFactor": 0.8211145618000169
      }
    },
    {
      "doubleSided": true,
      "emissiveFactor": [
        1.0,
        1.0,
        1.0
      ],
      "emissiveTexture": {
        "index": 4
      },
      "name": "material_2",
      "normalTexture": {
        "index": 5
      },
      "pbrMetallicRoughness": {
        "baseColorTexture": {
          "index": 4
        },
        "metallicFactor": 0.0,
        "roughnessFactor": 0.8211145618000169
      }
    },
    {
      "doubleSided": true,
      "emissiveFactor": [
        1.0,
        1.0,
        1.0
      ],
      "emissiveTexture": {
        "index": 6
      },
      "name": "material_3",
      "normalTexture": {
        "index": 7
      },
      "pbrMetallicRoughness": {
        "baseColorTexture": {
          "index": 6
        },
        "metallicFactor": 0.0,
        "roughnessFactor": 0.8211145618000169
      }
    },
    {
      "doubleSided": true,
      "emissiveFactor": [
        1.0,
        1.0,
        1.0
      ],
      "emissiveTexture": {
        "index": 8
      },
      "name": "material_1",
      "normalTexture": {
        "index": 9
      },
      "pbrMetallicRoughness": {
        "baseColorTexture": {
          "index": 8
        },
        "metallicFactor": 0.0,
        "roughnessFactor": 0.8211145618000169
      }
    },
    {
      "doubleSided": true,
      "emissiveFactor": [
        1.0,
        1.0,
        1.0
      ],
      "emissiveTexture": {
        "index": 10
      },
      "name": "material_5",
      "normalTexture": {
        "index": 11
      },
      "pbrMetallicRoughness": {
        "baseColorTexture": {
          "index": 10
        },
        "metallicFactor": 0.0,
        "roughnessFactor": 0.8211145618000169
      }
    }
  ],
  "meshes": [
    {
      "name": "SM_Junior_Static.mo_material_0_0",
      "primitives": [
        {
          "attributes": {
            "NORMAL": 1,
            "POSITION": 0,
            "TANGENT": 2,
            "TEXCOORD_0": 3,
            "TEXCOORD_1": 4,
            "TEXCOORD_2": 5
          },
          "indices": 6,
          "material": 0,
          "mode": 4
        }
      ]
    },
    {
      "name": "SM_Junior_Static.mo_material_4_0",
      "primitives": [
        {
          "attributes": {
            "NORMAL": 8,
            "POSITION": 7,
            "TANGENT": 9,
            "TEXCOORD_0": 10,
            "TEXCOORD_1": 11,
            "TEXCOORD_2": 12
          },
          "indices": 13,
          "material": 1,
          "mode": 4
        }
      ]
    },
    {
      "name": "SM_Junior_Static.mo_material_2_0",
      "primitives": [
        {
          "attributes": {
            "NORMAL": 15,
            "POSITION": 14,
            "TANGENT": 16,
            "TEXCOORD_0": 17,
            "TEXCOORD_1": 18,
            "TEXCOORD_2": 19
          },
          "indices": 20,
          "material": 2,
          "mode": 4
        }
      ]
    },
    {
      "name": "SM_Junior_Static.mo_material_3_0",
      "primitives": [
        {
          "attributes": {
            "NORMAL": 22,
            "POSITION": 21,
            "TANGENT": 23,
            "TEXCOORD_0": 24,
            "TEXCOORD_1": 25,
            "TEXCOORD_2": 26
          },
          "indices": 27,
          "material": 3,
          "mode": 4
        }
      ]
    },
    {
      "name": "SM_Junior_Static.mo_material_1_0",
      "primitives": [
        {
          "attributes": {
            "NORMAL": 29,
            "POSITION": 28,
            "TANGENT": 30,
            "TEXCOORD_0": 31,
            "TEXCOORD_1": 32,
            "TEXCOORD_2": 33
          },
          "indices": 34,
          "material": 4,
          "mode": 4
        }
      ]
    },
    {
      "name": "SM_Junior_Static.mo_material_5_0",
      "primitives": [
        {
          "attributes": {
            "NORMAL": 36,
            "POSITION": 35,
            "TANGENT": 37,
            "TEXCOORD_0": 38,
            "TEXCOORD_1": 39,
            "TEXCOORD_2": 40
          },
          "indices": 41,
          "material": 5,
          "mode": 4
        }
      ]
    }
  ],
  "nodes": [
    {
      "children": [
        1
      ],
      "matrix": [
        1.0,
        0.0,
        0.0,
        0.0,
        0.0,
        2.220446049250313e-16,
        -1.0,
        0.0,
        0.0,
        1.0,
        2.220446049250313e-16,
        0.0,
        0.0,
        0.0,
        0.0,
        1.0
      ],
      "name": "Sketchfab_model"
    },
    {
      "children": [
        2
      ],
      "matrix": [
        1.0,
        0.0,
        0.0,
        0.0,
        0.0,
        0.0,
        1.0,
        0.0,
        0.0,
        -1.0,
        0.0,
        0.0,
        0.0,
        0.0,
        0.0,
        1.0
      ],
      "name": "Galactus.fbx"
    },
    {
      "children": [
        3
      ],
      "name": "RootNode"
    },
    {
      "children": [
        4,
        5,
        6,
        7,
        8,
        9
      ],
      "matrix": [
        100.0,
        0.0,
        0.0,
        0.0,
        0.0,
        -1.629206793918314e-05,
        -99.99999999999868,
        0.0,
        0.0,
        99.99999999999868,
        -1.629206793918314e-05,
        0.0,
        0.0,
        0.0,
        0.0,
        1.0
      ],
      "name": "SM_Junior_Static.mo"
    },
    {
      "mesh": 0,
      "name": "SM_Junior_Static.mo_material_0_0"
    },
    {
      "mesh": 1,
      "name": "SM_Junior_Static.mo_material_4_0"
    },
    {
      "mesh": 2,
      "name": "SM_Junior_Static.mo_material_2_0"
    },
    {
      "mesh": 3,
      "name": "SM_Junior_Static.mo_material_3_0"
    },
    {
      "mesh": 4,
      "name": "SM_Junior_Static.mo_material_1_0"
    },
    {
      "mesh": 5,
      "name": "SM_Junior_Static.mo_material_5_0"
    }
  ],
  "samplers": [
    {
      "magFilter": 9729,
      "minFilter": 9987,
      "wrapS": 10497,
      "wrapT": 10497
    }
  ],
  "scene": 0,
  "scenes": [
    {
      "name": "Sketchfab_Scene",
      "nodes": [
        0
      ]
    }
  ],
  "textures": [
    {
      "sampler": 0,
      "source": 0
    },
    {
      "sampler": 0,
      "source": 1
    },
    {
      "sampler": 0,
      "source": 2
    },
    {
      "sampler": 0,
      "source": 3
    },
    {
      "sampler": 0,
      "source": 4
    },
    {
      "sampler": 0,
      "source": 5
    },
    {
      "sampler": 0,
      "source": 6
    },
    {
      "sampler": 0,
      "source": 7
    },
    {
      "sampler": 0,
      "source": 8
    },
    {
      "sampler": 0,
      "source": 9
    },
    {
      "sampler": 0,
      "source": 10
    },
    {
      "sampler": 0,
      "source": 11
    }
  ]
}
